<?xml version="1.0" encoding="UTF-8"?>
<svg version="1.1" xmlns="http://www.w3.org/2000/svg" width="512" height="512">
<path d="M0 0 C0.76570312 0.59039062 1.53140625 1.18078125 2.3203125 1.7890625 C12.56649451 10.17879342 19.80234269 21.51960893 24 34 C24.36738281 35.0415625 24.73476563 36.083125 25.11328125 37.15625 C32.14673319 59.04946769 31.79722153 82.33823126 21.46875 103.07421875 C15.39077964 114.04036809 7.29002325 123.56438651 -0.82104492 133.05664062 C-6.07515988 139.22166573 -11.08698187 145.56083312 -16 152 C-16.43731445 152.56831543 -16.87462891 153.13663086 -17.32519531 153.72216797 C-28.92822722 168.90836171 -37.49835951 185.08091181 -38.5625 204.375 C-38.62727539 205.47908203 -38.62727539 205.47908203 -38.69335938 206.60546875 C-38.79843799 208.40348068 -38.89962093 210.20171958 -39 212 C-37.329375 212.3403125 -37.329375 212.3403125 -35.625 212.6875 C-26.87468447 214.89059363 -18.75891481 219.23870791 -13.125 226.375 C-11.60552765 229.92043547 -11.47145752 232.168067 -12 236 C-13.45778808 238.59668502 -15.10336186 240.67661828 -17 243 C-16.21625 243.9075 -15.4325 244.815 -14.625 245.75 C-10.09592548 250.99419155 -9.57132543 255.15368341 -9.671875 262.0078125 C-10.14181424 266.29321079 -11.41590774 268.57987789 -14 272 C-14.66 272.33 -15.32 272.66 -16 273 C-15.79503906 273.54527344 -15.59007812 274.09054687 -15.37890625 274.65234375 C-11.25117283 286.20604734 -10.99821997 296.98598607 -16.1875 308.375 C-20.15231144 315.53687038 -24.51628755 318.55577018 -32.1875 321.1875 C-36.60047484 322.85106232 -36.60047484 322.85106232 -39.4140625 326.44140625 C-40.01946087 328.33393421 -40.58394592 330.23997925 -41.109375 332.15625 C-44.00479732 341.40128268 -51.78163683 346.68623611 -60 351 C-69.11220442 355.51592494 -79.69710142 355.28287305 -89.3125 352.4375 C-98.47251825 348.94913087 -105.80439653 342.9885471 -110 334 C-110.29177012 332.08640861 -110.56224752 330.1694623 -110.8125 328.25 C-111.29934047 325.37948979 -111.29934047 325.37948979 -113 323 C-117.86712299 320.81944543 -122.80755902 319.7058779 -127.98876953 318.51953125 C-135.86695844 316.4844759 -144.23502141 310.4930902 -148.5 303.5625 C-149.92508045 296.25896271 -149.10043636 291.18493913 -145 285 C-144.45988281 284.47019531 -143.91976562 283.94039063 -143.36328125 283.39453125 C-141.76698355 282.08667438 -141.76698355 282.08667438 -142 280 C-142.763125 279.236875 -143.52625 278.47375 -144.3125 277.6875 C-148.53091536 273.46908464 -150.19156223 270.73535996 -150.5 264.75 C-150.33619178 258.02476264 -147.73503389 252.73503389 -143 248 C-143.36761934 244.41766685 -145.28600218 241.69082367 -147.0625 238.625 C-150.77699275 231.3123721 -151.76270681 223.67983306 -149.296875 215.734375 C-146.10097604 209.50508042 -140.25483762 205.70095261 -134 203 C-133.34 203 -132.68 203 -132 203 C-135.91408592 187.43575244 -141.63395975 176.39912915 -153 165 C-153.80695313 164.18144531 -154.61390625 163.36289062 -155.4453125 162.51953125 C-158.3461841 159.6585799 -161.31445517 156.88336015 -164.3125 154.125 C-165.1777832 153.32630493 -165.1777832 153.32630493 -166.06054688 152.51147461 C-168.99801884 149.80848939 -171.95919645 147.14945227 -175 144.5625 C-191.23080198 130.32616098 -202.19395782 116.18361649 -205 94 C-206.28620225 65.9636812 -203.19867584 38.84035411 -184 17 C-183.39671875 16.25363281 -182.7934375 15.50726563 -182.171875 14.73828125 C-161.64599421 -9.97039457 -126.63215479 -21.91077409 -95.61791992 -24.8059082 C-62.08866018 -27.29175745 -26.70027906 -21.5820147 0 0 Z M-171.58447266 24.37744141 C-188.09746172 43.30557616 -195.6829627 66.04489406 -194 91 C-191.08146019 114.47058878 -175.02197714 131.11110903 -157.74658203 145.52929688 C-151.94527537 150.41426631 -146.22172763 155.49601682 -141 161 C-140.17048828 161.87205078 -140.17048828 161.87205078 -139.32421875 162.76171875 C-128.68464917 174.35816611 -124.71204906 187.56903152 -123 203 C-120.43795456 203.33719047 -117.87545682 203.66987153 -115.3125 204 C-114.2306543 204.14308594 -114.2306543 204.14308594 -113.12695312 204.2890625 C-109.39007129 204.76683735 -105.77708469 205.11919794 -102 205 C-102.17015625 204.10023438 -102.3403125 203.20046875 -102.515625 202.2734375 C-102.75796875 200.98695313 -103.0003125 199.70046875 -103.25 198.375 C-103.38494873 197.66931885 -103.51989746 196.9636377 -103.65893555 196.23657227 C-104.45851215 192.02124066 -105.20164725 187.80321257 -105.87890625 183.56640625 C-109.19333508 163.23093041 -117.29648897 147.06284331 -127 129 C-129.62451617 131.62451617 -129.5832868 133.4877828 -130.125 137.125 C-130.29257813 138.22070312 -130.46015625 139.31640625 -130.6328125 140.4453125 C-130.81457031 141.70988281 -130.81457031 141.70988281 -131 143 C-132.32 143 -133.64 143 -135 143 C-135.02740802 140.37492057 -135.04770264 137.75016044 -135.0625 135.125 C-135.06942871 134.34286133 -135.07635742 133.56072266 -135.08349609 132.75488281 C-135.09460029 128.6326621 -134.88774745 124.81348641 -134.125 120.75 C-133.39488999 115.16513254 -136.13484598 111.12331914 -138.62890625 106.2734375 C-140.6453031 101.45936183 -140.55427832 97.1219423 -140 92 C-135.48782531 91.60996456 -135.48782531 91.60996456 -133.3046875 93.35546875 C-132.83289063 93.96003906 -132.36109375 94.56460938 -131.875 95.1875 C-131.37484375 95.82171875 -130.8746875 96.4559375 -130.359375 97.109375 C-128.76071348 99.33280079 -127.31150914 101.59556658 -126 104 C-125.58492188 103.64808594 -125.16984375 103.29617188 -124.7421875 102.93359375 C-110.16737738 91.25545091 -93.8703382 87.97582531 -75.69628906 85.56103516 C-74.6337793 85.41327637 -73.57126953 85.26551758 -72.4765625 85.11328125 C-71.04304443 84.93406128 -71.04304443 84.93406128 -69.58056641 84.7512207 C-66.34844871 83.81032892 -65.09196689 82.61630708 -63 80 C-61.71476881 77.57443227 -61.71476881 77.57443227 -60.73828125 74.88671875 C-60.34608398 73.89260986 -59.95388672 72.89850098 -59.54980469 71.87426758 C-59.14149414 70.82263428 -58.73318359 69.77100098 -58.3125 68.6875 C-48.11793091 43.38515642 -48.11793091 43.38515642 -38 36 C-34.3125 35.0625 -34.3125 35.0625 -31 35 C-30.01 35.66 -29.02 36.32 -28 37 C-27.8125 39.625 -27.8125 39.625 -28 42 C-28.86625 42.309375 -29.7325 42.61875 -30.625 42.9375 C-38.20652038 47.57065134 -41.72449716 57.06667368 -45.375 64.875 C-45.82488281 65.81085938 -46.27476562 66.74671875 -46.73828125 67.7109375 C-49.2214365 72.64355546 -49.2214365 72.64355546 -50 78 C-44.58202578 76.23915838 -41.47503914 72.83621065 -37.5 68.8984375 C-35 67 -35 67 -32.25 66.6640625 C-30 67 -30 67 -29 68 C-29.04131584 73.09217676 -29.45526573 77.14702797 -33 81 C-33 81.66 -33 82.32 -33 83 C-33.72703125 83.29003906 -34.4540625 83.58007812 -35.203125 83.87890625 C-36.9240844 84.56873215 -38.64325928 85.2630547 -40.359375 85.96484375 C-41.14828125 86.28582031 -41.9371875 86.60679687 -42.75 86.9375 C-43.52859375 87.25589844 -44.3071875 87.57429688 -45.109375 87.90234375 C-48 89 -48 89 -50.2175293 89.46777344 C-54.93607105 90.55330062 -54.93607105 90.55330062 -58.22021484 93.86987305 C-59.12587288 96.35444284 -59.7497646 98.79097295 -60.3125 101.375 C-60.54557861 102.31255127 -60.77865723 103.25010254 -61.01879883 104.21606445 C-61.72625854 107.13546442 -62.37044598 110.06290741 -63 113 C-63.19432617 113.8657666 -63.38865234 114.7315332 -63.58886719 115.62353516 C-68.12498142 136.05979848 -69.94332611 156.89137045 -71.1875 177.75 C-71.23038147 178.45925629 -71.27326294 179.16851257 -71.31744385 179.89926147 C-71.87302684 189.28082113 -72.07974621 198.60221551 -72 208 C-61.11 208.99 -61.11 208.99 -50 210 C-49.62875 205.978125 -49.62875 205.978125 -49.25 201.875 C-47.03515597 181.45759648 -38.72206325 164.02593803 -26 148 C-24.92449069 146.62210012 -23.85039529 145.24309601 -22.77734375 143.86328125 C-22.19412354 143.11385254 -21.61090332 142.36442383 -21.01000977 141.59228516 C-20.40858154 140.81933105 -19.80715332 140.04637695 -19.1875 139.25 C-18.58156006 138.47188965 -17.97562012 137.6937793 -17.35131836 136.89208984 C-15.56514909 134.59657486 -13.78179545 132.29891119 -12 130 C-11.49500977 129.3498291 -10.99001953 128.6996582 -10.46972656 128.02978516 C6.38789895 106.18391346 21.30667282 80.58974764 19 52 C16.55656979 33.33307371 5.41004649 19.40397719 -9 8 C-58.2789412 -27.79696672 -130.74878749 -20.33548752 -171.58447266 24.37744141 Z M-119 111 C-121.2534063 113.71599905 -121.2534063 113.71599905 -120.83666992 116.26831055 C-119.80499196 119.63669244 -118.28294387 122.62330952 -116.61328125 125.70703125 C-115.9145649 127.0305205 -115.21600256 128.35409106 -114.51757812 129.67773438 C-113.42619494 131.72792544 -112.33184423 133.77645118 -111.23364258 135.82299805 C-99.0745758 158.54791293 -93.71933087 180.32315077 -92 206 C-88.7 206.33 -85.4 206.66 -82 207 C-81.98018066 206.05084717 -81.96036133 205.10169434 -81.93994141 204.1237793 C-81.17894313 168.78278399 -80.40149628 133.15486713 -69.91796875 99.078125 C-68.90473816 96.21591708 -68.90473816 96.21591708 -69 94 C-86.41584603 93.23540188 -105.93784468 99.62712159 -119 111 Z M-136.0625 218.0625 C-138.97532077 220.97532077 -139.17770851 222.79429817 -139.25 226.8125 C-139.17615197 231.09568586 -138.98869351 233.73111647 -136 237 C-125.34699282 246.13114901 -109.74323188 244.31593792 -96.5949707 244.26074219 C-93.60021175 244.25013359 -90.60606752 244.26062367 -87.61132812 244.2734375 C-77.92420914 244.28176431 -68.30427618 244.02750803 -58.65234375 243.16796875 C-57.41213219 243.06352448 -57.41213219 243.06352448 -56.14686584 242.95697021 C-46.34985167 241.97359513 -33.88645124 239.14588681 -26 233 C-26 231.68 -26 230.36 -26 229 C-27.74474299 228.21734047 -29.49622941 227.44971568 -31.25 226.6875 C-32.22453125 226.25824219 -33.1990625 225.82898438 -34.203125 225.38671875 C-44.05778509 221.54616021 -54.40578481 220.28399171 -64.85546875 219.2109375 C-66.25173265 219.06142073 -67.64791565 218.9111468 -69.04402161 218.76016235 C-72.68437068 218.36846066 -76.32569759 217.98676411 -79.96734619 217.60736084 C-83.66051527 217.22083453 -87.35267501 216.82490932 -91.04492188 216.4296875 C-97.63072533 215.72575326 -104.21728045 215.02948636 -110.80484009 214.34214783 C-113.61375953 214.04135985 -116.417925 213.71369898 -119.22290039 213.37866211 C-125.61276435 212.73806493 -130.77723304 214.5030345 -136.0625 218.0625 Z M-35.4375 248.8125 C-46.11694226 252.11775755 -56.73721121 253.40375212 -67.875 254.125 C-69.78756592 254.2502002 -69.78756592 254.2502002 -71.73876953 254.37792969 C-86.7250298 255.30056664 -101.4075448 255.35507168 -116.375 254.125 C-117.3326123 254.04668945 -118.29022461 253.96837891 -119.27685547 253.88769531 C-124.41899385 253.41050487 -129.09020372 252.60954754 -134 251 C-137.81508325 256.53802408 -139.69523875 260.16348564 -139 267 C-135.86608555 272.51136678 -132.13786714 274.22209531 -126.19921875 276.125 C-95.50105329 284.52107944 -55.67363136 284.13327929 -27.25390625 268.48828125 C-24.09700402 266.34428883 -22.339254 264.678508 -20.625 261.25 C-21.21796508 256.11096933 -23.94475493 252.10717755 -27 248 C-30.09652938 246.45173531 -32.19216391 247.80655245 -35.4375 248.8125 Z M-32 281.75 C-62.93702623 294.23103204 -102.28374245 293.15966358 -134 285 C-137.79670428 291.57821488 -137.79670428 291.57821488 -138 299 C-135.51027934 304.97532959 -131.08644728 307.01027428 -125.36328125 309.6796875 C-114.96725897 313.76082052 -103.89546415 315.13432975 -92.79296875 315.203125 C-92.03376129 315.21004868 -91.27455383 315.21697235 -90.49234009 315.22410583 C-88.05734024 315.24128745 -85.6225576 315.24769172 -83.1875 315.25 C-82.35874359 315.25133942 -81.52998718 315.25267883 -80.67611694 315.25405884 C-68.54312616 315.24979634 -56.8530092 314.82338419 -45 312 C-43.50146484 311.65775391 -43.50146484 311.65775391 -41.97265625 311.30859375 C-34.15146666 309.25038596 -26.5232371 305.97332386 -22 299 C-20.4892513 295.9785026 -20.44300092 293.2649627 -21 290 C-22.44194533 286.53630616 -24.15943247 283.26700737 -26 280 C-28.44307513 280 -29.76854994 280.74274824 -32 281.75 Z M-105 324 C-102.6243312 329.23231502 -100.39192336 333.13092466 -96 337 C-95.030625 337.886875 -94.06125 338.77375 -93.0625 339.6875 C-86.14837451 344.90837027 -78.35271122 344.87487052 -70 344 C-62.61898273 341.85261338 -57.23832064 337.35748096 -53 331 C-52.31467377 329.34091887 -51.6456813 327.67490832 -51 326 C-52.24499268 325.97494385 -53.48998535 325.9498877 -54.77270508 325.92407227 C-59.43766758 325.82916051 -64.10250984 325.72915217 -68.76733398 325.62768555 C-70.77772183 325.58465071 -72.78813888 325.54295691 -74.79858398 325.50268555 C-77.70565558 325.44421204 -80.61258432 325.38074938 -83.51953125 325.31640625 C-84.40332962 325.29969376 -85.28712799 325.28298126 -86.19770813 325.26576233 C-92.49780066 325.11966029 -98.73131109 324.63870227 -105 324 Z " fill="#000000" transform="translate(332,153)"/>
<path d="M0 0 C0.75064728 -0.00090637 1.50129456 -0.00181274 2.27468872 -0.00274658 C14.43643883 -0.00106117 14.43643883 -0.00106117 15.625 1.1875 C15.8125 4.625 15.8125 4.625 15.625 8.1875 C11.17210361 12.64039639 3.02484034 11.37057397 -2.9296875 11.43359375 C-5.07568712 11.46542063 -7.22168309 11.49749476 -9.36767578 11.52978516 C-11.05331635 11.55289764 -11.05331635 11.55289764 -12.77301025 11.57647705 C-32.74801724 11.85523722 -52.6704428 12.42906812 -72.61279297 13.61499023 C-73.79551788 13.68288506 -73.79551788 13.68288506 -75.00213623 13.75215149 C-76.46098646 13.83665601 -77.91956388 13.92607602 -79.37774658 14.02140808 C-84.15176745 14.29911628 -84.15176745 14.29911628 -86.375 13.1875 C-86.18111207 9.69751732 -85.63392443 8.43242851 -83.0625 6 C-72.66356255 -0.03415597 -56.98386265 1.51511904 -45.3125 1.0625 C-43.77236237 0.99946182 -43.77236237 0.99946182 -42.20111084 0.93515015 C-28.13450009 0.36328007 -14.07854952 -0.00112759 0 0 Z " fill="#000000" transform="translate(496.375,200.8125)"/>
<path d="M0 0 C0.88188995 -0.00349457 1.76377991 -0.00698914 2.6723938 -0.0105896 C5.23495663 -0.01621663 7.79687276 -0.00551509 10.359375 0.01171875 C11.12130661 0.0109433 11.88323822 0.01016785 12.66825867 0.0093689 C20.43029508 0.10885963 28.27383469 0.94927472 34.25 6.3125 C34.625 9.0625 34.625 9.0625 34.25 11.3125 C27.0984055 14.88829725 14.54540846 12.22923304 6.75 11.3125 C-5.36807355 9.90464166 -17.26858321 10.1402009 -29.42797852 10.95410156 C-36.54039389 11.41312686 -43.62478634 11.40584341 -50.75 11.3125 C-50.75 9.6625 -50.75 8.0125 -50.75 6.3125 C-34.19085845 0.38553454 -17.42292881 0.02257746 0 0 Z " fill="#000000" transform="translate(50.75,220.6875)"/>
<path d="M0 0 C1.9375 1.125 1.9375 1.125 3 3 C3.1875 5.75 3.1875 5.75 2 9 C0.38012695 10.50585938 0.38012695 10.50585938 -1.63671875 12.09375 C-6.34474662 16.08729323 -9.58773252 20.64246895 -13 25.75 C-14.21666604 27.53178415 -15.43410836 29.31303848 -16.65234375 31.09375 C-17.22839355 31.94195312 -17.80444336 32.79015625 -18.39794922 33.6640625 C-20.39337819 36.5735816 -22.46361922 39.41432047 -24.5625 42.25 C-26.76723186 45.24448655 -28.8215992 48.25824463 -30.75 51.4375 C-32.56416852 54.37271618 -34.16678065 56.93947684 -37 59 C-40.125 59.4375 -40.125 59.4375 -43 59 C-45 56 -45 56 -44.87280273 53.15551758 C-43.85985788 49.49333234 -42.41267554 47.46537021 -40.03515625 44.51171875 C-39.20936781 43.45989489 -38.38672907 42.40559225 -37.56689453 41.34912109 C-36.92920135 40.52900543 -36.92920135 40.52900543 -36.27862549 39.69232178 C-34.15273736 36.87860751 -32.199669 33.95435802 -30.24609375 31.01953125 C-29.85096588 30.42929169 -29.45583801 29.83905212 -29.04873657 29.23092651 C-27.43578629 26.8185591 -25.82807114 24.40280665 -24.22680664 21.98266602 C-9.16132916 -0.7478636 -9.16132916 -0.7478636 0 0 Z " fill="#000000" transform="translate(391,39)"/>
<path d="M0 0 C3.625 0.375 3.625 0.375 7 1 C6.91524897 9.43278012 6.82023436 17.86535812 6.71247292 26.29787254 C6.66273826 30.21433413 6.61640825 34.13077169 6.578125 38.04736328 C6.54098119 41.83411305 6.49454677 45.62064978 6.44193649 49.40721512 C6.42354576 50.84469452 6.40838267 52.28221931 6.39665604 53.71976852 C6.32957127 61.66647062 5.98806783 69.26476791 4 77 C2.35 77 0.7 77 -1 77 C-7.45657752 64.08684496 -4.21894667 41.50169335 -4.25 27.25 C-4.25508575 26.28699982 -4.26017151 25.32399963 -4.26541138 24.33181763 C-4.27718642 21.55960585 -4.27407161 18.78784133 -4.265625 16.015625 C-4.26958786 15.18008591 -4.27355072 14.34454681 -4.27763367 13.48368835 C-4.23498142 8.12964048 -3.96694684 3.96694684 0 0 Z " fill="#000000" transform="translate(236,5)"/>
<path d="M0 0 C8.22336478 0.06557707 15.83179976 5.77888379 22.6550293 9.95947266 C30.04241215 14.46960221 37.68042933 18.37873408 45.42382812 22.23828125 C46.40673828 22.73972656 47.38964844 23.24117188 48.40234375 23.7578125 C49.28656006 24.20141113 50.17077637 24.64500977 51.08178711 25.10205078 C53.54739162 26.67228885 54.8792152 28.06257592 56.375 30.5625 C56.12703633 32.73218209 55.93266393 34.00483607 54.375 35.5625 C42.33983461 37.51883347 33.5947202 29.79508289 24.22192383 23.38623047 C19.75172061 20.3667882 15.17349993 17.77102767 10.375 15.3125 C-2.56555136 8.63831863 -2.56555136 8.63831863 -4.3515625 3.453125 C-4.44179688 2.82921875 -4.53203125 2.2053125 -4.625 1.5625 C-3.625 0.5625 -3.625 0.5625 0 0 Z " fill="#000000" transform="translate(366.625,295.4375)"/>
<path d="M0 0 C5.43326636 -0.83753908 9.0018121 2.07292551 13.375 4.875 C14.16865967 5.37241699 14.96231934 5.86983398 15.7800293 6.38232422 C22.67595346 10.7287208 29.48818408 15.20143074 36.22412109 19.79150391 C38.02622276 21.01784474 39.8351134 22.23370598 41.64453125 23.44921875 C42.80511844 24.23634414 43.96529287 25.02407856 45.125 25.8125 C46.13820312 26.49957031 47.15140625 27.18664062 48.1953125 27.89453125 C51.10536497 30.0790971 53.61421215 32.24953371 56 35 C55.8125 38.3125 55.8125 38.3125 55 41 C48.41844983 42.03919213 44.15933466 38.60696848 39 35 C34.7268715 31.83737712 30.52849642 28.57850987 26.328125 25.3203125 C22.45157246 22.32416812 18.50336296 19.44863331 14.5 16.625 C9.21472005 12.89518379 4.05428591 9.03808028 -1 5 C-0.67 3.35 -0.34 1.7 0 0 Z " fill="#000000" transform="translate(93,76)"/>
<path d="M0 0 C0.99 0.33 1.98 0.66 3 1 C3.49363639 6.35595484 1.91119658 9.81647841 -0.75 14.3125 C-1.14687012 14.99965088 -1.54374023 15.68680176 -1.95263672 16.39477539 C-6.79722339 24.6086616 -12.34298333 32.3324685 -18 40 C-19.06154297 41.45019531 -19.06154297 41.45019531 -20.14453125 42.9296875 C-27.1290031 52.2118832 -27.1290031 52.2118832 -33.1875 53.875 C-34.115625 53.91625 -35.04375 53.9575 -36 54 C-36.66 53.34 -37.32 52.68 -38 52 C-37.77831195 47.03972978 -36.1936391 44.45373423 -33 40.75 C-32.18660156 39.79480469 -31.37320313 38.83960938 -30.53515625 37.85546875 C-28.20095448 35.22634473 -25.8260489 32.64213281 -23.4375 30.0625 C-19.45900485 25.69787707 -16.25442953 21.06709873 -13.0546875 16.11328125 C-10.84427405 12.76404262 -8.52441803 9.52752666 -6.125 6.3125 C-5.38507813 5.31863281 -4.64515625 4.32476562 -3.8828125 3.30078125 C-2 1 -2 1 0 0 Z " fill="#000000" transform="translate(137,312)"/>
</svg>
