<?xml version="1.0" encoding="UTF-8"?>
<svg version="1.1" xmlns="http://www.w3.org/2000/svg" width="512" height="512">
<path d="M0 0 C0.71542969 0.61488281 1.43085938 1.22976562 2.16796875 1.86328125 C2.95558594 2.52972656 3.74320313 3.19617188 4.5546875 3.8828125 C13.28514006 11.48940774 20.85143005 20.13703328 28.42578125 28.87109375 C30.48297274 31.2234876 32.5739379 33.54363091 34.66796875 35.86328125 C39.46704667 41.18662818 44.20874825 46.55191464 48.84765625 52.015625 C54.44238614 58.59646304 60.12531987 65.06094023 66.01171875 71.3828125 C69.22766314 74.83697499 72.3731483 78.33763717 75.4609375 81.90625 C77.50430306 84.24887275 79.58477734 86.55601547 81.66796875 88.86328125 C84.9350121 92.48351848 88.16317651 96.1331169 91.36328125 99.8125 C93.39755016 102.12416922 95.47019185 104.39859555 97.54296875 106.67578125 C100.59655742 110.05269107 103.5122608 113.49545257 106.35546875 117.05078125 C111.25800361 123.11648343 116.59054912 128.74493102 121.9375 134.41796875 C124.87829454 137.54104047 127.73196052 140.72600217 130.53125 143.9765625 C132.54670647 146.29986912 134.60645337 148.5807659 136.66796875 150.86328125 C139.9350121 154.48351848 143.16317651 158.1331169 146.36328125 161.8125 C148.39755016 164.12416922 150.47019185 166.39859555 152.54296875 168.67578125 C155.59655742 172.05269107 158.5122608 175.49545257 161.35546875 179.05078125 C166.26085566 185.12001215 171.59749141 190.75126063 176.9453125 196.4296875 C179.83263273 199.49669251 182.66750726 202.59632637 185.40234375 205.80078125 C186.82789358 207.46602529 188.28260979 209.1062749 189.74609375 210.73828125 C207.27949914 230.51031597 212.70586469 250.69327541 211.16796875 276.86328125 C209.11611099 293.54608351 198.98661194 309.59897914 186.23046875 320.17578125 C184.56153522 321.43004111 182.87428959 322.66037805 181.16796875 323.86328125 C180.3996875 324.40726562 179.63140625 324.95125 178.83984375 325.51171875 C163.23206265 335.69295344 143.07467165 338.49201444 124.87890625 335.21484375 C102.95040559 329.8135078 88.10352426 316.0969568 73.88720703 299.35498047 C67.83001921 292.22255221 61.70138462 285.192696 55.32421875 278.34375 C52.10827436 274.88958751 48.9627892 271.38892533 45.875 267.8203125 C43.83163444 265.47768975 41.75116016 263.17054703 39.66796875 260.86328125 C34.86889083 255.53993432 30.12718925 250.17464786 25.48828125 244.7109375 C19.89355136 238.13009946 14.21061763 231.66562227 8.32421875 225.34375 C5.10827436 221.88958751 1.9627892 218.38892533 -1.125 214.8203125 C-3.16836556 212.47768975 -5.24883984 210.17054703 -7.33203125 207.86328125 C-10.5990746 204.24304402 -13.82723901 200.5934456 -17.02734375 196.9140625 C-19.06161266 194.60239328 -21.13425435 192.32796695 -23.20703125 190.05078125 C-26.26061992 186.67387143 -29.1763233 183.23110993 -32.01953125 179.67578125 C-36.92206611 173.61007907 -42.25461162 167.98163148 -47.6015625 162.30859375 C-50.54306147 159.18477393 -53.39880109 156.00047227 -56.1953125 152.74609375 C-58.20261487 150.43697742 -60.26928799 148.18546985 -62.33203125 145.92578125 C-75.18887171 131.65997198 -75.18887171 131.65997198 -75.04296875 120.5859375 C-74.63494774 115.31944411 -72.70264985 112.69604687 -68.95703125 109.11328125 C-63.81645429 105.41206584 -60.20857843 104.31357891 -53.83203125 104.86328125 C-44.87490655 107.84898948 -39.7222899 113.88710899 -33.83203125 120.86328125 C-31.93995385 123.09566034 -30.0436791 125.32441433 -28.14453125 127.55078125 C-27.6343042 128.14898682 -27.12407715 128.74719238 -26.59838867 129.36352539 C-22.50242803 134.13928183 -18.27531236 138.77862858 -13.98828125 143.3828125 C-10.77233686 146.83697499 -7.6268517 150.33763717 -4.5390625 153.90625 C-2.49569694 156.24887275 -0.41522266 158.55601547 1.66796875 160.86328125 C4.9350121 164.48351848 8.16317651 168.1331169 11.36328125 171.8125 C13.39755016 174.12416922 15.47019185 176.39859555 17.54296875 178.67578125 C20.59655742 182.05269107 23.5122608 185.49545257 26.35546875 189.05078125 C31.25800361 195.11648343 36.59054912 200.74493102 41.9375 206.41796875 C44.87829454 209.54104047 47.73196052 212.72600217 50.53125 215.9765625 C52.54670647 218.29986912 54.60645337 220.5807659 56.66796875 222.86328125 C59.93187723 226.4800447 63.15587824 230.12717733 66.35546875 233.80078125 C68.44008039 236.17292554 70.55225519 238.5188419 72.66796875 240.86328125 C77.46704667 246.18662818 82.20874825 251.55191464 86.84765625 257.015625 C92.43884709 263.5923002 98.112892 270.05833451 104.00292969 276.36962891 C106.76998027 279.33616453 109.47114148 282.34099542 112.10546875 285.42578125 C119.57114482 293.98618386 128.67853609 298.10164403 139.85546875 299.23828125 C149.74058596 298.90748008 159.37613655 295.06590976 166.16796875 287.86328125 C173.37806383 278.19802448 175.23255902 268.79999962 174.16796875 256.86328125 C171.6456073 246.41554546 164.44351364 239.02481289 157.390625 231.30078125 C155.45452573 229.17753706 153.55258215 227.03211709 151.66796875 224.86328125 C149.03107239 221.83573358 146.35780306 218.84390846 143.66796875 215.86328125 C140.40406027 212.2465178 137.18005926 208.59938517 133.98046875 204.92578125 C131.89585711 202.55363696 129.78368231 200.2077206 127.66796875 197.86328125 C122.86889083 192.53993432 118.12718925 187.17464786 113.48828125 181.7109375 C107.89355136 175.13009946 102.21061763 168.66562227 96.32421875 162.34375 C93.10827436 158.88958751 89.9627892 155.38892533 86.875 151.8203125 C84.83163444 149.47768975 82.75116016 147.17054703 80.66796875 144.86328125 C77.4009254 141.24304402 74.17276099 137.5934456 70.97265625 133.9140625 C68.93838734 131.60239328 66.86574565 129.32796695 64.79296875 127.05078125 C61.73938008 123.67387143 58.8236767 120.23110993 55.98046875 116.67578125 C51.07793389 110.61007907 45.74538838 104.98163148 40.3984375 99.30859375 C37.45764296 96.18552203 34.60397698 93.00056033 31.8046875 89.75 C29.78923103 87.42669338 27.72948413 85.1457966 25.66796875 82.86328125 C22.4009254 79.24304402 19.17276099 75.5934456 15.97265625 71.9140625 C13.93838734 69.60239328 11.86574565 67.32796695 9.79296875 65.05078125 C6.77707045 61.71662232 3.90384999 58.31874624 1.10546875 54.80078125 C-15.9520162 33.90981972 -32.90871441 18.54170513 -60.94921875 15.64453125 C-77.08198792 14.91399076 -93.41723178 20.80999255 -105.83203125 30.86328125 C-106.54359375 31.59417969 -107.25515625 32.32507812 -107.98828125 33.078125 C-109.83203125 34.86328125 -109.83203125 34.86328125 -111.83203125 34.86328125 C-112.10402344 35.44851562 -112.37601563 36.03375 -112.65625 36.63671875 C-113.81169612 38.82477287 -115.09449139 40.56606823 -116.64453125 42.48828125 C-128.5240646 58.21204316 -130.65577945 76.22862436 -128.4296875 95.3125 C-125.64041421 108.67548901 -118.35925449 120.33605801 -108.83203125 129.86328125 C-107.71574067 131.10246621 -106.61104226 132.35221513 -105.51953125 133.61328125 C-104.96007812 134.25394531 -104.400625 134.89460937 -103.82421875 135.5546875 C-102.25891616 137.36859698 -100.703007 139.18925231 -99.15234375 141.015625 C-93.55761386 147.59646304 -87.87468013 154.06094023 -81.98828125 160.3828125 C-78.77233686 163.83697499 -75.6268517 167.33763717 -72.5390625 170.90625 C-70.49569694 173.24887275 -68.41522266 175.55601547 -66.33203125 177.86328125 C-63.0649879 181.48351848 -59.83682349 185.1331169 -56.63671875 188.8125 C-54.60244984 191.12416922 -52.52980815 193.39859555 -50.45703125 195.67578125 C-47.40344258 199.05269107 -44.4877392 202.49545257 -41.64453125 206.05078125 C-36.74199639 212.11648343 -31.40945088 217.74493102 -26.0625 223.41796875 C-23.12170546 226.54104047 -20.26803948 229.72600217 -17.46875 232.9765625 C-15.45329353 235.29986912 -13.39354663 237.5807659 -11.33203125 239.86328125 C-8.0649879 243.48351848 -4.83682349 247.1331169 -1.63671875 250.8125 C0.39755016 253.12416922 2.47019185 255.39859555 4.54296875 257.67578125 C7.59655742 261.05269107 10.5122608 264.49545257 13.35546875 268.05078125 C18.25800361 274.11648343 23.59054912 279.74493102 28.9375 285.41796875 C31.87829454 288.54104047 34.73196052 291.72600217 37.53125 294.9765625 C39.54670647 297.29986912 41.60645337 299.5807659 43.66796875 301.86328125 C46.9350121 305.48351848 50.16317651 309.1331169 53.36328125 312.8125 C55.39755016 315.12416922 57.47019185 317.39859555 59.54296875 319.67578125 C62.59655742 323.05269107 65.5122608 326.49545257 68.35546875 330.05078125 C73.25800361 336.11648343 78.59054912 341.74493102 83.9375 347.41796875 C86.87829454 350.54104047 89.73196052 353.72600217 92.53125 356.9765625 C94.54670647 359.29986912 96.60645337 361.5807659 98.66796875 363.86328125 C101.9350121 367.48351848 105.16317651 371.1331169 108.36328125 374.8125 C110.39755016 377.12416922 112.47019185 379.39859555 114.54296875 381.67578125 C117.55886705 385.00994018 120.43208751 388.40781626 123.23046875 391.92578125 C129.74613749 399.98130821 136.97760293 407.41220133 144.16796875 414.86328125 C144.76391846 415.48912109 145.35986816 416.11496094 145.97387695 416.75976562 C149.73462191 420.63628222 153.59202112 423.89873344 158.10546875 426.86328125 C158.74806641 427.28625488 159.39066406 427.70922852 160.05273438 428.14501953 C182.38202055 442.40614882 209.02283164 447.30365366 234.9609375 441.90625 C259.37649268 436.20909817 280.92949697 421.61034521 294.48046875 400.48828125 C307.77017221 377.65934279 312.83341008 351.68036052 307.19921875 325.7265625 C301.8927859 305.84753945 291.96387121 290.90907621 278.16796875 275.86328125 C277.23101916 274.82880531 276.29477735 273.79368771 275.359375 272.7578125 C273.70001979 270.92671276 272.03624719 269.09960216 270.3671875 267.27734375 C267.85197944 264.51642265 265.39518004 261.70941377 262.9453125 258.890625 C260.87437388 256.52838952 258.77284027 254.19532272 256.66796875 251.86328125 C253.40406027 248.2465178 250.18005926 244.59938517 246.98046875 240.92578125 C244.89585711 238.55363696 242.78368231 236.2077206 240.66796875 233.86328125 C235.86889083 228.53993432 231.12718925 223.17464786 226.48828125 217.7109375 C220.89355136 211.13009946 215.21061763 204.66562227 209.32421875 198.34375 C206.10827436 194.88958751 202.9627892 191.38892533 199.875 187.8203125 C197.83163444 185.47768975 195.75116016 183.17054703 193.66796875 180.86328125 C190.4009254 177.24304402 187.17276099 173.5934456 183.97265625 169.9140625 C181.93838734 167.60239328 179.86574565 165.32796695 177.79296875 163.05078125 C174.73938008 159.67387143 171.8236767 156.23110993 168.98046875 152.67578125 C164.07793389 146.61007907 158.74538838 140.98163148 153.3984375 135.30859375 C150.45764296 132.18552203 147.60397698 129.00056033 144.8046875 125.75 C142.78923103 123.42669338 140.72948413 121.1457966 138.66796875 118.86328125 C135.4009254 115.24304402 132.17276099 111.5934456 128.97265625 107.9140625 C126.93838734 105.60239328 124.86574565 103.32796695 122.79296875 101.05078125 C119.73938008 97.67387143 116.8236767 94.23110993 113.98046875 90.67578125 C109.07624223 84.60798605 103.74092939 78.97801186 98.39453125 73.30078125 C94.88382627 69.57153438 91.47704816 65.77264718 88.16796875 61.86328125 C87.32105469 60.87199219 86.47414062 59.88070312 85.6015625 58.859375 C84.68557785 57.77786861 83.77021293 56.69583704 82.85546875 55.61328125 C82.01371094 54.618125 81.17195312 53.62296875 80.3046875 52.59765625 C75.59939364 46.57625643 75.24917771 41.40703923 76.16796875 33.86328125 C77.82699974 29.07909885 80.49183342 25.91242319 84.85546875 23.36328125 C89.47721476 21.40993954 94.24637919 20.85372442 99.16796875 21.86328125 C105.05626064 24.61979333 108.86871434 28.30423854 113.16796875 33.11328125 C113.78244873 33.78641357 114.39692871 34.4595459 115.0300293 35.15307617 C118.57790695 39.05173402 122.09137623 42.98214989 125.53125 46.9765625 C127.54670647 49.29986912 129.60645337 51.5807659 131.66796875 53.86328125 C134.9350121 57.48351848 138.16317651 61.1331169 141.36328125 64.8125 C143.39755016 67.12416922 145.47019185 69.39859555 147.54296875 71.67578125 C150.59655742 75.05269107 153.5122608 78.49545257 156.35546875 82.05078125 C161.25800361 88.11648343 166.59054912 93.74493102 171.9375 99.41796875 C174.87829454 102.54104047 177.73196052 105.72600217 180.53125 108.9765625 C182.54670647 111.29986912 184.60645337 113.5807659 186.66796875 115.86328125 C189.9350121 119.48351848 193.16317651 123.1331169 196.36328125 126.8125 C198.39755016 129.12416922 200.47019185 131.39859555 202.54296875 133.67578125 C205.59655742 137.05269107 208.5122608 140.49545257 211.35546875 144.05078125 C216.25800361 150.11648343 221.59054912 155.74493102 226.9375 161.41796875 C229.87829454 164.54104047 232.73196052 167.72600217 235.53125 170.9765625 C237.54670647 173.29986912 239.60645337 175.5807659 241.66796875 177.86328125 C244.93187723 181.4800447 248.15587824 185.12717733 251.35546875 188.80078125 C253.44008039 191.17292554 255.55225519 193.5188419 257.66796875 195.86328125 C262.46704667 201.18662818 267.20874825 206.55191464 271.84765625 212.015625 C277.44238614 218.59646304 283.12531987 225.06094023 289.01171875 231.3828125 C292.2308683 234.84041757 295.38041118 238.34357176 298.46875 241.91796875 C300.46203303 244.19993415 302.50289902 246.43556699 304.54296875 248.67578125 C309.27047408 253.93123134 313.80246073 259.30315786 318.16796875 264.86328125 C318.97234375 265.87648438 319.77671875 266.8896875 320.60546875 267.93359375 C331.44851578 282.04953228 338.77567278 298.66904947 343.16796875 315.86328125 C343.48507812 316.99121094 343.8021875 318.11914062 344.12890625 319.28125 C348.96726746 339.63343913 347.86676906 363.8448989 342.16796875 383.86328125 C341.9860498 384.53020996 341.80413086 385.19713867 341.61669922 385.88427734 C334.98292059 409.67458442 320.47184558 433.31800426 301.16796875 448.86328125 C300.37261719 449.55679687 299.57726562 450.2503125 298.7578125 450.96484375 C270.29594015 475.36073433 234.24601402 483.23603988 197.49609375 480.67724609 C166.88233792 477.56645261 138.79935979 462.15083174 117.16796875 440.86328125 C116.39582031 440.11820312 115.62367188 439.373125 114.828125 438.60546875 C111.03365462 434.89111195 107.47885203 431.01943267 104.015625 426.99609375 C101.93080325 424.58951304 99.80275342 422.2256318 97.66796875 419.86328125 C94.4009254 416.24304402 91.17276099 412.5934456 87.97265625 408.9140625 C85.93838734 406.60239328 83.86574565 404.32796695 81.79296875 402.05078125 C78.73938008 398.67387143 75.8236767 395.23110993 72.98046875 391.67578125 C68.07793389 385.61007907 62.74538838 379.98163148 57.3984375 374.30859375 C54.45764296 371.18552203 51.60397698 368.00056033 48.8046875 364.75 C46.78923103 362.42669338 44.72948413 360.1457966 42.66796875 357.86328125 C39.4009254 354.24304402 36.17276099 350.5934456 32.97265625 346.9140625 C30.93838734 344.60239328 28.86574565 342.32796695 26.79296875 340.05078125 C23.73938008 336.67387143 20.8236767 333.23110993 17.98046875 329.67578125 C13.07793389 323.61007907 7.74538838 317.98163148 2.3984375 312.30859375 C-0.54235704 309.18552203 -3.39602302 306.00056033 -6.1953125 302.75 C-8.21076897 300.42669338 -10.27051587 298.1457966 -12.33203125 295.86328125 C-15.5990746 292.24304402 -18.82723901 288.5934456 -22.02734375 284.9140625 C-24.06161266 282.60239328 -26.13425435 280.32796695 -28.20703125 278.05078125 C-31.26061992 274.67387143 -34.1763233 271.23110993 -37.01953125 267.67578125 C-41.92206611 261.61007907 -47.25461162 255.98163148 -52.6015625 250.30859375 C-55.54235704 247.18552203 -58.39602302 244.00056033 -61.1953125 240.75 C-63.21076897 238.42669338 -65.27051587 236.1457966 -67.33203125 233.86328125 C-70.59593973 230.2465178 -73.81994074 226.59938517 -77.01953125 222.92578125 C-79.10414289 220.55363696 -81.21631769 218.2077206 -83.33203125 215.86328125 C-88.13110917 210.53993432 -92.87281075 205.17464786 -97.51171875 199.7109375 C-103.10644864 193.13009946 -108.78938237 186.66562227 -114.67578125 180.34375 C-117.8949308 176.88614493 -121.04447368 173.38299074 -124.1328125 169.80859375 C-126.12609553 167.52662835 -128.16696152 165.29099551 -130.20703125 163.05078125 C-151.96322115 138.86084807 -165.94757666 114.97272368 -166.08203125 81.86328125 C-166.11296875 80.00509766 -166.11296875 80.00509766 -166.14453125 78.109375 C-166.25653754 51.25586749 -154.70589648 26.72959102 -136.08203125 7.67578125 C-122.85928156 -5.37450694 -105.86741233 -14.72652261 -87.83203125 -19.13671875 C-86.96449219 -19.36101563 -86.09695312 -19.5853125 -85.203125 -19.81640625 C-56.27761996 -25.96360237 -22.95167348 -18.85465344 0 0 Z " fill="#CECFD2" transform="translate(165.83203125,26.13671875)"/>
<path d="M0 0 C-3.57681299 1.9015723 -6.74046498 2.57887611 -10.75 3.25 C-35.83451249 7.95026597 -58.09471378 22.2755267 -73 43 C-75.95087824 47.51885361 -78.5145777 52.21264296 -81 57 C-81.48339844 57.91394531 -81.96679688 58.82789063 -82.46484375 59.76953125 C-92.74244237 80.6058786 -94.05568691 106.80459102 -88 129 C-87.74476562 130.05574219 -87.48953125 131.11148438 -87.2265625 132.19921875 C-82.47991698 149.90115825 -71.90609016 164.99876384 -59.48852539 178.16943359 C-56.38288071 181.4667125 -53.45005056 184.8292196 -50.625 188.375 C-45.79751343 194.39173965 -40.51729536 199.94530903 -35.23046875 205.5546875 C-32.28967421 208.67775922 -29.43600823 211.86272092 -26.63671875 215.11328125 C-24.62126228 217.43658787 -22.56151538 219.71748465 -20.5 222 C-17.23295665 225.62023723 -14.00479224 229.26983565 -10.8046875 232.94921875 C-8.77041859 235.26088797 -6.6977769 237.5353143 -4.625 239.8125 C-1.57141133 243.18940982 1.34429205 246.63217132 4.1875 250.1875 C9.09003486 256.25320218 14.42258037 261.88164977 19.76953125 267.5546875 C22.71032579 270.67775922 25.56399177 273.86272092 28.36328125 277.11328125 C30.37873772 279.43658787 32.43848462 281.71748465 34.5 284 C37.76704335 287.62023723 40.99520776 291.26983565 44.1953125 294.94921875 C46.22958141 297.26088797 48.3022231 299.5353143 50.375 301.8125 C53.42858867 305.18940982 56.34429205 308.63217132 59.1875 312.1875 C64.09003486 318.25320218 69.42258037 323.88164977 74.76953125 329.5546875 C77.71032579 332.67775922 80.56399177 335.86272092 83.36328125 339.11328125 C85.37873772 341.43658787 87.43848462 343.71748465 89.5 346 C92.76390848 349.61676345 95.98790949 353.26389608 99.1875 356.9375 C101.27211164 359.30964429 103.38428644 361.65556065 105.5 364 C110.29907792 369.32334693 115.0407795 374.68863339 119.6796875 380.15234375 C125.27441739 386.73318179 130.95735112 393.19765898 136.84375 399.51953125 C140.05969439 402.97369374 143.20517955 406.47435592 146.29296875 410.04296875 C148.33633431 412.3855915 150.41680859 414.69273422 152.5 417 C155.76704335 420.62023723 158.99520776 424.26983565 162.1953125 427.94921875 C164.22958141 430.26088797 166.3022231 432.5353143 168.375 434.8125 C171.35090699 438.09591738 174.14997239 441.44470668 176.875 444.9375 C202.95638146 476.92581454 235.98606495 496.12959521 277 501 C277 501.33 277 501.66 277 502 C240.5216026 503.00158934 205.32714773 493.17824815 178.0625 467.875 C176.0206457 465.93755001 174.00617419 463.97428516 172 462 C171.22785156 461.25492187 170.45570313 460.50984375 169.66015625 459.7421875 C165.86568587 456.0278307 162.31088328 452.15615142 158.84765625 448.1328125 C156.7628345 445.72623179 154.63478467 443.36235055 152.5 441 C149.23295665 437.37976277 146.00479224 433.73016435 142.8046875 430.05078125 C140.77041859 427.73911203 138.6977769 425.4646857 136.625 423.1875 C133.57141133 419.81059018 130.65570795 416.36782868 127.8125 412.8125 C122.90996514 406.74679782 117.57741963 401.11835023 112.23046875 395.4453125 C109.28967421 392.32224078 106.43600823 389.13727908 103.63671875 385.88671875 C101.62126228 383.56341213 99.56151538 381.28251535 97.5 379 C94.23295665 375.37976277 91.00479224 371.73016435 87.8046875 368.05078125 C85.77041859 365.73911203 83.6977769 363.4646857 81.625 361.1875 C78.57141133 357.81059018 75.65570795 354.36782868 72.8125 350.8125 C67.90996514 344.74679782 62.57741963 339.11835023 57.23046875 333.4453125 C54.28967421 330.32224078 51.43600823 327.13727908 48.63671875 323.88671875 C46.62126228 321.56341213 44.56151538 319.28251535 42.5 317 C39.23295665 313.37976277 36.00479224 309.73016435 32.8046875 306.05078125 C30.77041859 303.73911203 28.6977769 301.4646857 26.625 299.1875 C23.57141133 295.81059018 20.65570795 292.36782868 17.8125 288.8125 C12.90996514 282.74679782 7.57741963 277.11835023 2.23046875 271.4453125 C-0.71032579 268.32224078 -3.56399177 265.13727908 -6.36328125 261.88671875 C-8.37873772 259.56341213 -10.43848462 257.28251535 -12.5 255 C-15.76390848 251.38323655 -18.98790949 247.73610392 -22.1875 244.0625 C-24.27211164 241.69035571 -26.38428644 239.34443935 -28.5 237 C-33.29907792 231.67665307 -38.0407795 226.31136661 -42.6796875 220.84765625 C-48.27441739 214.26681821 -53.95735112 207.80234102 -59.84375 201.48046875 C-63.06289955 198.02286368 -66.21244243 194.51970949 -69.30078125 190.9453125 C-71.29406428 188.6633471 -73.33493027 186.42771426 -75.375 184.1875 C-97.1311899 159.99756682 -111.11554541 136.10944243 -111.25 103 C-111.2809375 101.14181641 -111.2809375 101.14181641 -111.3125 99.24609375 C-111.42450629 72.39258624 -99.87386523 47.86630977 -81.25 28.8125 C-68.03606937 15.77091585 -51.03139291 6.39226238 -33 2 C-32.09765625 1.77570312 -31.1953125 1.55140625 -30.265625 1.3203125 C-20.32913043 -0.72873864 -10.09268956 -0.18438022 0 0 Z " fill="#C0C1C4" transform="translate(111,5)"/>
<path d="M0 0 C-0.57683662 3.89364717 -2.54821777 6.01189041 -5 9 C-6.74368785 14.23106355 -6.89909571 19.68073907 -4.6875 24.8125 C-1.24968336 30.96373621 4.17579643 35.92698364 9 41 C12.29343885 44.65474437 15.48768135 48.39457857 18.671875 52.14453125 C24.27008973 58.72718954 29.95485613 65.19497941 35.84375 71.51953125 C39.05969439 74.97369374 42.20517955 78.47435592 45.29296875 82.04296875 C47.33633431 84.3855915 49.41680859 86.69273422 51.5 89 C54.76704335 92.62023723 57.99520776 96.26983565 61.1953125 99.94921875 C63.22958141 102.26088797 65.3022231 104.5353143 67.375 106.8125 C70.42858867 110.18940982 73.34429205 113.63217132 76.1875 117.1875 C81.09003486 123.25320218 86.42258037 128.88164977 91.76953125 134.5546875 C94.71032579 137.67775922 97.56399177 140.86272092 100.36328125 144.11328125 C102.37873772 146.43658787 104.43848462 148.71748465 106.5 151 C109.76390848 154.61676345 112.98790949 158.26389608 116.1875 161.9375 C118.27211164 164.30964429 120.38428644 166.65556065 122.5 169 C127.29907792 174.32334693 132.0407795 179.68863339 136.6796875 185.15234375 C142.27441739 191.73318179 147.95735112 198.19765898 153.84375 204.51953125 C157.05969439 207.97369374 160.20517955 211.47435592 163.29296875 215.04296875 C165.33633431 217.3855915 167.41680859 219.69273422 169.5 222 C172.76704335 225.62023723 175.99520776 229.26983565 179.1953125 232.94921875 C181.22958141 235.26088797 183.3022231 237.5353143 185.375 239.8125 C189.32467127 244.18391583 193.051542 248.70139302 196.74609375 253.2890625 C198.93028305 255.91614633 201.21869161 258.39048271 203.5625 260.875 C222.37876589 281.65470233 228.39503753 306.8771398 227.18017578 334.19628906 C225.6680187 357.7269285 214.5141128 378.64711285 198 395 C197.14792969 395.87398438 196.29585937 396.74796875 195.41796875 397.6484375 C183.76996215 408.99956837 169.44084073 415.46800231 154 420 C153.09507812 420.26683594 152.19015625 420.53367187 151.2578125 420.80859375 C141.49261906 423.07049958 130.95951362 422.17132947 121 422 C121 421.67 121 421.34 121 421 C121.969375 420.85304688 122.93875 420.70609375 123.9375 420.5546875 C149.28224972 416.42790732 172.06615073 404.47092377 188 384 C203.54382127 362.16848714 210.32037617 335.25079101 206.23095703 308.69873047 C202.15662535 286.39330148 191.07792788 269.44397036 176 253 C175.06305041 251.96552406 174.1268086 250.93040646 173.19140625 249.89453125 C171.53205104 248.06343151 169.86827844 246.23632091 168.19921875 244.4140625 C165.68401069 241.6531414 163.22721129 238.84613252 160.77734375 236.02734375 C158.70640513 233.66510827 156.60487152 231.33204147 154.5 229 C151.23609152 225.38323655 148.01209051 221.73610392 144.8125 218.0625 C142.72788836 215.69035571 140.61571356 213.34443935 138.5 211 C133.70092208 205.67665307 128.9592205 200.31136661 124.3203125 194.84765625 C118.72558261 188.26681821 113.04264888 181.80234102 107.15625 175.48046875 C103.94030561 172.02630626 100.79482045 168.52564408 97.70703125 164.95703125 C95.66366569 162.6144085 93.58319141 160.30726578 91.5 158 C88.23295665 154.37976277 85.00479224 150.73016435 81.8046875 147.05078125 C79.77041859 144.73911203 77.6977769 142.4646857 75.625 140.1875 C72.57141133 136.81059018 69.65570795 133.36782868 66.8125 129.8125 C61.90996514 123.74679782 56.57741963 118.11835023 51.23046875 112.4453125 C48.28967421 109.32224078 45.43600823 106.13727908 42.63671875 102.88671875 C40.62126228 100.56341213 38.56151538 98.28251535 36.5 96 C33.23295665 92.37976277 30.00479224 88.73016435 26.8046875 85.05078125 C24.77041859 82.73911203 22.6977769 80.4646857 20.625 78.1875 C17.57141133 74.81059018 14.65570795 71.36782868 11.8125 67.8125 C6.90827348 61.7447048 1.57296064 56.11473061 -3.7734375 50.4375 C-7.28414248 46.70825313 -10.69092059 42.90936593 -14 39 C-15.27037109 37.51306641 -15.27037109 37.51306641 -16.56640625 35.99609375 C-17.4823909 34.91458736 -18.39775582 33.83255579 -19.3125 32.75 C-20.15425781 31.75484375 -20.99601563 30.7596875 -21.86328125 29.734375 C-26.56857511 23.71297518 -26.91879104 18.54375798 -26 11 C-24.34096901 6.2158176 -21.67613533 3.04914194 -17.3125 0.5 C-11.76747231 -1.89300625 -5.68392212 -1.89464071 0 0 Z " fill="#C0C1C4" transform="translate(268,49)"/>
<path d="M0 0 C18.83467068 -0.8391685 37.15341764 2.03505104 51.83618164 15.01220703 C54.28727113 17.28246888 56.64593409 19.62880115 59 22 C59.75152344 22.72703125 60.50304687 23.4540625 61.27734375 24.203125 C65.09910515 27.92952575 68.67107811 31.82289257 72.15234375 35.8671875 C74.2371655 38.27376821 76.36521533 40.63764945 78.5 43 C81.76390848 46.61676345 84.98790949 50.26389608 88.1875 53.9375 C90.27211164 56.30964429 92.38428644 58.65556065 94.5 61 C97.76390848 64.61676345 100.98790949 68.26389608 104.1875 71.9375 C106.27211164 74.30964429 108.38428644 76.65556065 110.5 79 C115.29907792 84.32334693 120.0407795 89.68863339 124.6796875 95.15234375 C130.27441739 101.73318179 135.95735112 108.19765898 141.84375 114.51953125 C145.05969439 117.97369374 148.20517955 121.47435592 151.29296875 125.04296875 C153.33633431 127.3855915 155.41680859 129.69273422 157.5 132 C160.76704335 135.62023723 163.99520776 139.26983565 167.1953125 142.94921875 C169.22958141 145.26088797 171.3022231 147.5353143 173.375 149.8125 C176.42858867 153.18940982 179.34429205 156.63217132 182.1875 160.1875 C187.09003486 166.25320218 192.42258037 171.88164977 197.76953125 177.5546875 C200.71032579 180.67775922 203.56399177 183.86272092 206.36328125 187.11328125 C208.37873772 189.43658787 210.43848462 191.71748465 212.5 194 C215.76704335 197.62023723 218.99520776 201.26983565 222.1953125 204.94921875 C224.22958141 207.26088797 226.3022231 209.5353143 228.375 211.8125 C229.92109928 213.53770448 231.46267678 215.26697064 233 217 C233.77988281 217.87785156 234.55976563 218.75570312 235.36328125 219.66015625 C244.62456392 230.47795702 249.22984334 239.50167277 248.44140625 253.7890625 C247.51951114 264.23720713 242.59066209 270.94794925 235 278 C226.57812369 284.63494684 217.54820532 285.93761825 207 285 C204.60546875 283.984375 204.60546875 283.984375 203 283 C203.556875 282.78085937 204.11375 282.56171875 204.6875 282.3359375 C216.28480373 277.51678764 222.45631876 271.37597384 227.375 259.75 C229.19088553 248.85468682 228.66547684 239.4023675 222.71484375 229.9609375 C219.26787115 225.14093682 215.21318103 220.80775752 211.22265625 216.4375 C209.28655698 214.31425581 207.3846134 212.16883584 205.5 210 C202.86310364 206.97245233 200.18983431 203.98062721 197.5 201 C194.23609152 197.38323655 191.01209051 193.73610392 187.8125 190.0625 C185.72788836 187.69035571 183.61571356 185.34443935 181.5 183 C176.70092208 177.67665307 171.9592205 172.31136661 167.3203125 166.84765625 C161.72558261 160.26681821 156.04264888 153.80234102 150.15625 147.48046875 C146.94030561 144.02630626 143.79482045 140.52564408 140.70703125 136.95703125 C138.66366569 134.6144085 136.58319141 132.30726578 134.5 130 C131.23295665 126.37976277 128.00479224 122.73016435 124.8046875 119.05078125 C122.77041859 116.73911203 120.6977769 114.4646857 118.625 112.1875 C115.57141133 108.81059018 112.65570795 105.36782868 109.8125 101.8125 C104.90996514 95.74679782 99.57741963 90.11835023 94.23046875 84.4453125 C91.28967421 81.32224078 88.43600823 78.13727908 85.63671875 74.88671875 C83.62126228 72.56341213 81.56151538 70.28251535 79.5 68 C76.23295665 64.37976277 73.00479224 60.73016435 69.8046875 57.05078125 C67.77041859 54.73911203 65.6977769 52.4646857 63.625 50.1875 C60.6091017 46.85334107 57.73588124 43.45546499 54.9375 39.9375 C40.81398539 22.63988542 27.7470552 9.7017534 6 3 C3.99885552 2.33677666 1.99849002 1.67117963 0 1 C0 0.67 0 0.34 0 0 Z " fill="#C0C1C4" transform="translate(112,41)"/>
<path d="M0 0 C-1.12907201 3.38721604 -2.51444325 4.51444325 -5 7 C-7.56248021 11.2948612 -7.4993653 15.12286562 -7 20 C-5.04751273 27.15912 0.00901515 31.69917213 5 37 C6.17393029 38.32694257 7.34121238 39.65981339 8.5 41 C11.13689636 44.02754767 13.81016569 47.01937279 16.5 50 C21.29907792 55.32334693 26.0407795 60.68863339 30.6796875 66.15234375 C36.27441739 72.73318179 41.95735112 79.19765898 47.84375 85.51953125 C51.05969439 88.97369374 54.20517955 92.47435592 57.29296875 96.04296875 C59.33633431 98.3855915 61.41680859 100.69273422 63.5 103 C66.76704335 106.62023723 69.99520776 110.26983565 73.1953125 113.94921875 C75.22958141 116.26088797 77.3022231 118.5353143 79.375 120.8125 C82.42858867 124.18940982 85.34429205 127.63217132 88.1875 131.1875 C93.09003486 137.25320218 98.42258037 142.88164977 103.76953125 148.5546875 C106.71032579 151.67775922 109.56399177 154.86272092 112.36328125 158.11328125 C114.37873772 160.43658787 116.43848462 162.71748465 118.5 165 C123.27691887 170.29876715 128.00309856 175.63390672 132.609375 181.08203125 C140.14300015 189.97545218 147.89608911 198.62129559 156 207 C156.84046875 207.87914062 157.6809375 208.75828125 158.546875 209.6640625 C167.64858798 218.55197685 179.40486799 224.05315108 191.83984375 226.4296875 C192.55269531 226.61789062 193.26554688 226.80609375 194 227 C194.33 227.66 194.66 228.32 195 229 C173.1819834 229.89971202 154.52203984 225.02265751 138 210 C132.14701539 204.53081766 126.89896488 198.59165174 121.71923828 192.49169922 C115.66205046 185.35927096 109.53341587 178.32941475 103.15625 171.48046875 C99.94030561 168.02630626 96.79482045 164.52564408 93.70703125 160.95703125 C91.66366569 158.6144085 89.58319141 156.30726578 87.5 154 C82.70092208 148.67665307 77.9592205 143.31136661 73.3203125 137.84765625 C67.72558261 131.26681821 62.04264888 124.80234102 56.15625 118.48046875 C52.94030561 115.02630626 49.79482045 111.52564408 46.70703125 107.95703125 C44.66366569 105.6144085 42.58319141 103.30726578 40.5 101 C37.23295665 97.37976277 34.00479224 93.73016435 30.8046875 90.05078125 C28.77041859 87.73911203 26.6977769 85.4646857 24.625 83.1875 C21.57141133 79.81059018 18.65570795 76.36782868 15.8125 72.8125 C10.90996514 66.74679782 5.57741963 61.11835023 0.23046875 55.4453125 C-2.71103022 52.32149268 -5.56676984 49.13719102 -8.36328125 45.8828125 C-10.37058362 43.57369617 -12.43725674 41.3221886 -14.5 39.0625 C-27.35684046 24.79669073 -27.35684046 24.79669073 -27.2109375 13.72265625 C-26.80291649 8.45616286 -24.8706186 5.83276562 -21.125 2.25 C-14.11323475 -2.79847098 -8.08466499 -3.15499121 0 0 Z " fill="#C0C1C4" transform="translate(118,133)"/>
</svg>
