<?xml version="1.0" encoding="UTF-8"?>
<svg version="1.1" xmlns="http://www.w3.org/2000/svg" width="512" height="512">
<path d="M0 0 C2.41886562 2.2520473 2.94420322 3.67219394 3.5 6.9375 C2.81691287 11.12140866 1.20086511 12.25459395 -2 15 C-4.56390208 16.44945274 -7.23082074 17.59444207 -9.9375 18.75 C-52.35019789 37.84027456 -85.69712382 77.93635965 -102.11474609 120.91845703 C-106.55187099 133.06472233 -110.28334659 145.1605675 -112 158 C-112.13595581 158.97622314 -112.13595581 158.97622314 -112.2746582 159.97216797 C-116.63783981 194.2906457 -109.89587633 228.84414875 -88.85522461 256.68530273 C-70.23554799 280.51861707 -44.17951972 294.7367863 -14.21484375 298.5078125 C-0.57546393 299.83882543 13.31477991 299.22500994 27 299 C27.03963867 298.4330542 27.07927734 297.8661084 27.12011719 297.28198242 C30.19299616 255.09780545 44.13110186 214.44323637 69 180 C69.45310547 179.36046387 69.90621094 178.72092773 70.37304688 178.06201172 C77.28087828 168.34224757 84.80007245 159.46260953 93.12304688 150.92822266 C95.08058754 148.91721119 97.01633117 146.88645173 98.953125 144.85546875 C116.2191975 126.95006685 135.24414732 113.63326758 160.9375 112.6875 C175.77886479 112.8580904 189.54882995 117.61658184 200.4375 127.9375 C208.84970001 137.06230374 214.66921628 149.45227103 215 162 C215.05027344 163.07378906 215.10054688 164.14757812 215.15234375 165.25390625 C216.0604991 200.09074533 198.11134449 230.66070386 174.90625 255.3125 C167.9876987 262.50817413 160.59153046 268.8356192 152.59765625 274.80371094 C151.17825924 275.86652349 149.77535682 276.95128533 148.375 278.0390625 C123.97744895 296.56595283 84.54479539 320 53 320 C61.48601223 359.91260935 79.40526688 395.41200596 114.3125 418.7109375 C132.73723831 430.33751305 152.41116881 437.91235252 174 441 C175.25683594 441.19529297 175.25683594 441.19529297 176.5390625 441.39453125 C212.96852325 446.08904939 250.82300009 435.12732436 280.25 413.5625 C290.81947412 405.37606381 300.87627802 396.17293701 309.5 385.9375 C312.2041234 382.76015501 312.74242384 382.14290638 316.75 381.6875 C320.85767229 382.08246849 322.82926614 383.4057632 326 386 C327.91927139 388.50339747 328.02922162 389.60269834 327.796875 392.76171875 C322.32072924 415.01527188 289.12049475 437.62169752 270.78173828 448.99560547 C235.6897762 470.01478257 195.65804309 475.81382379 156.01367188 466.22851562 C110.99740577 454.58920429 70.76430643 423.5825984 47.1875 383.6875 C36.95259618 365.70627227 30.82207745 346.46977939 28 326 C26.99437012 326.01571045 25.98874023 326.0314209 24.95263672 326.04760742 C0.77451987 326.39167587 -22.72479106 326.49497418 -46 319 C-46.63566895 318.79536133 -47.27133789 318.59072266 -47.92626953 318.37988281 C-63.38853066 313.28795434 -76.77055871 305.78583102 -89 295 C-89.63035156 294.50113281 -90.26070312 294.00226563 -90.91015625 293.48828125 C-116.6916952 272.99225143 -130.25982146 235.52805749 -134.59423828 203.97241211 C-135.34575676 196.61503717 -135.34765376 189.26452714 -135.3125 181.875 C-135.31034485 181.05885223 -135.3081897 180.24270447 -135.30596924 179.40182495 C-135.25371094 167.05935124 -134.84859653 155.06182918 -132 143 C-131.79068848 142.1136084 -131.58137695 141.2272168 -131.36572266 140.31396484 C-120.22141197 94.54578727 -95.95948433 53.46961325 -58 25 C-56.96875 24.22398438 -55.9375 23.44796875 -54.875 22.6484375 C-42.46695858 13.69059127 -29.11524507 6.73605084 -14.625 1.8125 C-13.73941406 1.50876465 -12.85382813 1.2050293 -11.94140625 0.89208984 C-4.14089232 -1.60811352 -4.14089232 -1.60811352 0 0 Z M103.72583008 176.55566406 C101.5726861 179.39618338 99.45653213 182.26176818 97.36035156 185.14453125 C96.21246778 186.71020188 95.02812832 188.24904808 93.8359375 189.78125 C73.32475119 216.45423302 50.52863407 259.36630962 52 294 C87.69878204 286.9045899 123.1782241 266.57226904 149.7265625 242.0859375 C151.8389424 240.1477745 153.99998072 238.28976729 156.1875 236.4375 C159.41740358 233.61294289 162.26047274 230.62398213 165.0234375 227.34375 C166.52034287 225.56876339 168.05291174 223.82377427 169.6015625 222.09375 C181.79727514 208.35924661 191.20855216 193.09717682 190.38671875 174.09765625 C189.36118661 160.48751833 184.35332242 146.26466835 174 137 C151.11223984 121.89407829 116.45470192 160.1855524 103.72583008 176.55566406 Z " fill="#000000" transform="translate(135,21)"/>
<path d="M0 0 C1.2262207 -0.02980957 2.45244141 -0.05961914 3.71582031 -0.09033203 C14.72143223 -0.16171814 14.72143223 -0.16171814 19.4375 4.3125 C22.83536626 9.40929938 21.82726845 15.52085119 21.8125 21.5 C21.81295319 22.20357635 21.81340637 22.90715271 21.81387329 23.63204956 C21.70443142 81.99748194 21.70443142 81.99748194 7.75 97.25 C3.63624827 99.81139259 0.27892444 100.75912587 -4.5625 100.3125 C-7.97481453 98.49743908 -9.18943671 97.07639149 -10.875 93.625 C-12.42408525 86.16122559 -11.3707508 79.78760841 -9.3125 72.5625 C-5.07896383 56.52914003 -4.10945293 39.77528067 -2.5625 23.3125 C-29.81612578 22.93394245 -29.81612578 22.93394245 -56.9765625 24.875 C-71.01092965 26.39859924 -71.01092965 26.39859924 -75.6875 23.125 C-77.59567604 20.26273594 -78.5625 18.74278012 -78.5625 15.3125 C-77.6875 12.6875 -77.6875 12.6875 -75.5625 10.3125 C-69.54382922 7.61881225 -62.95004237 6.4272741 -56.5 5.25 C-55.58460449 5.08008545 -54.66920898 4.9101709 -53.72607422 4.73510742 C-45.69663414 3.2769275 -37.68382554 2.12463255 -29.5625 1.3125 C-28.46164062 1.20035156 -27.36078125 1.08820313 -26.2265625 0.97265625 C-17.50339317 0.24406202 -8.74942551 0.11738943 0 0 Z " fill="#000000" transform="translate(490.5625,369.6875)"/>
</svg>
